<svg width="21" height="22" viewBox="0 0 21 22" fill="none" xmlns="http://www.w3.org/2000/svg">
<path d="M9.99999 6.32998C10.2652 6.32998 10.5196 6.22462 10.7071 6.03708C10.8946 5.84955 11 5.59519 11 5.32998V4.77998L17 3.27998V6.21998L12.7 7.29998C12.4348 7.3318 12.1931 7.46768 12.028 7.67772C11.863 7.88776 11.7882 8.15476 11.82 8.41998C11.8518 8.68519 11.9877 8.9269 12.1977 9.09194C12.4078 9.25697 12.6748 9.3318 12.94 9.29998H13.18L18.24 7.99998H18.31L18.5 7.90998L18.65 7.80998C18.6985 7.76476 18.7421 7.71447 18.78 7.65998C18.819 7.61401 18.8526 7.56367 18.88 7.50998C18.9103 7.4539 18.9306 7.393 18.94 7.32998C18.9493 7.26698 18.9493 7.20297 18.94 7.13998C18.9747 7.10106 18.9957 7.05192 19 6.99998V1.99998C19.0045 1.84578 18.9733 1.69263 18.9088 1.5525C18.8443 1.41237 18.7482 1.28907 18.6282 1.19223C18.5081 1.09539 18.3672 1.02765 18.2166 0.994294C18.066 0.960942 17.9097 0.962887 17.76 0.999976L9.75999 2.99998C9.53811 3.05473 9.34168 3.18382 9.2034 3.36577C9.06512 3.54772 8.99333 3.77154 8.99999 3.99998V5.32998C8.99999 5.59519 9.10534 5.84955 9.29288 6.03708C9.48042 6.22462 9.73477 6.32998 9.99999 6.32998ZM19.71 19.33L10.71 10.33L1.70999 1.32998C1.51951 1.1826 1.28224 1.10892 1.04178 1.12247C0.801322 1.13602 0.573834 1.2359 0.401121 1.40375C0.228407 1.5716 0.122071 1.79614 0.101654 2.03611C0.0812377 2.27608 0.148112 2.51536 0.289987 2.70998L8.99999 11.41V14.35C8.53275 14.1218 8.01997 14.0021 7.49999 14C6.80775 14 6.13106 14.2052 5.55549 14.5898C4.97992 14.9744 4.53132 15.521 4.26641 16.1606C4.0015 16.8001 3.93219 17.5039 4.06724 18.1828C4.20229 18.8617 4.53563 19.4854 5.02511 19.9748C5.5146 20.4643 6.13824 20.7977 6.81717 20.9327C7.4961 21.0678 8.19984 20.9985 8.83938 20.7336C9.47892 20.4686 10.0255 20.02 10.4101 19.4445C10.7947 18.8689 11 18.1922 11 17.5V13.41L18.29 20.71C18.3829 20.8037 18.4936 20.8781 18.6154 20.9289C18.7373 20.9796 18.868 21.0058 19 21.0058C19.132 21.0058 19.2627 20.9796 19.3846 20.9289C19.5064 20.8781 19.617 20.8037 19.71 20.71C19.8037 20.617 19.8781 20.5064 19.9289 20.3846C19.9796 20.2627 20.0058 20.132 20.0058 20C20.0058 19.868 19.9796 19.7373 19.9289 19.6154C19.8781 19.4935 19.8037 19.3829 19.71 19.29V19.33ZM7.49999 19C7.20332 19 6.91331 18.912 6.66663 18.7472C6.41996 18.5824 6.2277 18.3481 6.11417 18.074C6.00064 17.7999 5.97093 17.4983 6.02881 17.2073C6.08669 16.9164 6.22955 16.6491 6.43933 16.4393C6.64911 16.2295 6.91638 16.0867 7.20735 16.0288C7.49832 15.9709 7.79992 16.0006 8.07401 16.1142C8.3481 16.2277 8.58237 16.4199 8.74719 16.6666C8.91201 16.9133 8.99999 17.2033 8.99999 17.5C8.99999 17.8978 8.84195 18.2793 8.56065 18.5606C8.27934 18.8419 7.89781 19 7.49999 19Z" fill="black"/>
</svg>
