<svg width="22" height="22" viewBox="0 0 22 22" fill="none" xmlns="http://www.w3.org/2000/svg">
<path d="M14.71 7.29002C14.617 7.19629 14.5064 7.1219 14.3846 7.07113C14.2627 7.02036 14.132 6.99422 14 6.99422C13.868 6.99422 13.7373 7.02036 13.6154 7.07113C13.4936 7.1219 13.383 7.19629 13.29 7.29002L11 9.59002L8.70999 7.29002C8.52168 7.10171 8.26629 6.99593 7.99999 6.99593C7.73369 6.99593 7.47829 7.10171 7.28999 7.29002C7.10168 7.47832 6.9959 7.73372 6.9959 8.00002C6.9959 8.26632 7.10168 8.52171 7.28999 8.71002L9.58999 11L7.28999 13.29C7.19626 13.383 7.12187 13.4936 7.0711 13.6154C7.02033 13.7373 6.99419 13.868 6.99419 14C6.99419 14.132 7.02033 14.2627 7.0711 14.3846C7.12187 14.5065 7.19626 14.6171 7.28999 14.71C7.38295 14.8037 7.49355 14.8781 7.61541 14.9289C7.73727 14.9797 7.86798 15.0058 7.99999 15.0058C8.132 15.0058 8.26271 14.9797 8.38456 14.9289C8.50642 14.8781 8.61702 14.8037 8.70999 14.71L11 12.41L13.29 14.71C13.383 14.8037 13.4936 14.8781 13.6154 14.9289C13.7373 14.9797 13.868 15.0058 14 15.0058C14.132 15.0058 14.2627 14.9797 14.3846 14.9289C14.5064 14.8781 14.617 14.8037 14.71 14.71C14.8037 14.6171 14.8781 14.5065 14.9289 14.3846C14.9796 14.2627 15.0058 14.132 15.0058 14C15.0058 13.868 14.9796 13.7373 14.9289 13.6154C14.8781 13.4936 14.8037 13.383 14.71 13.29L12.41 11L14.71 8.71002C14.8037 8.61706 14.8781 8.50645 14.9289 8.38459C14.9796 8.26274 15.0058 8.13203 15.0058 8.00002C15.0058 7.86801 14.9796 7.7373 14.9289 7.61544C14.8781 7.49358 14.8037 7.38298 14.71 7.29002V7.29002ZM18.07 3.93002C17.1475 2.97492 16.0441 2.21309 14.824 1.689C13.604 1.16491 12.2918 0.889052 10.964 0.877514C9.63621 0.865976 8.31941 1.11899 7.09045 1.6218C5.86148 2.12461 4.74497 2.86714 3.80604 3.80607C2.86711 4.745 2.12458 5.86151 1.62177 7.09048C1.11896 8.31944 0.865945 9.63624 0.877483 10.964C0.889021 12.2918 1.16488 13.604 1.68897 14.8241C2.21306 16.0441 2.97489 17.1476 3.92999 18.07C4.85246 19.0251 5.9559 19.7869 7.17594 20.311C8.39598 20.8351 9.70818 21.111 11.036 21.1225C12.3638 21.1341 13.6806 20.881 14.9095 20.3782C16.1385 19.8754 17.255 19.1329 18.1939 18.194C19.1329 17.255 19.8754 16.1385 20.3782 14.9096C20.881 13.6806 21.134 12.3638 21.1225 11.036C21.111 9.70821 20.8351 8.39601 20.311 7.17597C19.7869 5.95593 19.0251 4.85249 18.07 3.93002V3.93002ZM16.66 16.66C15.352 17.9694 13.6305 18.7848 11.7888 18.9673C9.94704 19.1498 8.09899 18.6881 6.55951 17.6608C5.02003 16.6335 3.88435 15.1042 3.34596 13.3335C2.80758 11.5628 2.89979 9.66016 3.6069 7.9498C4.31401 6.23945 5.59226 4.82717 7.22388 3.95358C8.8555 3.07999 10.7395 2.79915 12.555 3.15889C14.3705 3.51863 16.005 4.49671 17.1802 5.92648C18.3554 7.35625 18.9985 9.14926 19 11C19.0036 12.0513 18.7986 13.0929 18.3969 14.0644C17.9953 15.0359 17.4049 15.9182 16.66 16.66V16.66Z" fill="black"/>
</svg>
