<svg width="18" height="18" viewBox="0 0 18 18" fill="none" xmlns="http://www.w3.org/2000/svg">
<path d="M15.54 6.00003L5.88 0.460026C5.35729 0.158186 4.764 6.39946e-05 4.16039 0.00172189C3.55679 0.00337978 2.96438 0.164758 2.44333 0.469465C1.92228 0.774173 1.49115 1.21135 1.19375 1.7366C0.896337 2.26185 0.743238 2.85646 0.750001 3.46003V14.58C0.750001 15.4871 1.11032 16.357 1.7517 16.9983C2.39307 17.6397 3.26296 18 4.17 18C4.77044 17.999 5.36009 17.8404 5.88 17.54L15.54 12C16.0591 11.6996 16.49 11.268 16.7896 10.7485C17.0892 10.2289 17.2469 9.63975 17.2469 9.04003C17.2469 8.4403 17.0892 7.85112 16.7896 7.33159C16.49 6.81206 16.0591 6.38044 15.54 6.08003V6.00003ZM14.54 10.19L4.88 15.81C4.66349 15.9327 4.41887 15.9972 4.17 15.9972C3.92113 15.9972 3.67652 15.9327 3.46 15.81C3.2441 15.6854 3.06482 15.5061 2.94018 15.2902C2.81555 15.0743 2.74996 14.8293 2.75 14.58V3.42003C2.74996 3.17072 2.81555 2.9258 2.94018 2.70989C3.06482 2.49397 3.2441 2.31468 3.46 2.19003C3.67741 2.06918 3.9213 2.00392 4.17 2.00003C4.41853 2.00513 4.66214 2.07032 4.88 2.19003L14.54 7.77003C14.756 7.89462 14.9353 8.0739 15.0601 8.28981C15.1848 8.50573 15.2504 8.75068 15.2504 9.00003C15.2504 9.24937 15.1848 9.49432 15.0601 9.71024C14.9353 9.92616 14.756 10.1054 14.54 10.23V10.19Z" fill="black"/>
</svg>
